<?xml version="1.0" encoding="UTF-8" standalone="no"?>
<!-- Created with Inkscape (http://www.inkscape.org/) -->

<svg
   width="8.4666424mm"
   height="4.9120226mm"
   viewBox="0 0 8.4666424 4.9120226"
   version="1.1"
   id="svg1"
   xml:space="preserve"
   xmlns:inkscape="http://www.inkscape.org/namespaces/inkscape"
   xmlns:sodipodi="http://sodipodi.sourceforge.net/DTD/sodipodi-0.dtd"
   xmlns="http://www.w3.org/2000/svg"
   xmlns:svg="http://www.w3.org/2000/svg"><sodipodi:namedview
     id="namedview1"
     pagecolor="#ffffff"
     bordercolor="#000000"
     borderopacity="0.25"
     inkscape:showpageshadow="2"
     inkscape:pageopacity="0.0"
     inkscape:pagecheckerboard="0"
     inkscape:deskcolor="#d1d1d1"
     inkscape:document-units="mm" /><defs
     id="defs1" /><g
     inkscape:label="Calque 1"
     inkscape:groupmode="layer"
     id="layer1"
     transform="translate(-100.69782,-146.044)"><path
       d="m 109.16446,150.82863 c -0.30797,0.0783 -0.49847,0.003 -0.66939,-0.2532 l -1.2155,-1.6817 -0.17568,-0.23283 -1.41949,1.92008 c -0.16219,0.23098 -0.33232,0.33152 -0.635,0.24977 l 1.81769,-2.43999 -1.69228,-2.20398 c 0.29104,-0.0566 0.49213,-0.0278 0.67072,0.23283 l 1.26074,1.7026 1.27,-1.69333 c 0.16272,-0.23099 0.33761,-0.31883 0.62971,-0.23363 l -0.65617,0.86995 -0.889,1.15755 c -0.10583,0.13229 -0.0913,0.22278 0.006,0.35057 z m -8.46455,-2.47862 0.1487,-0.7313 c 0.40481,-1.44727 2.06375,-2.04867 3.20781,-1.15438 0.6686,0.52599 0.83476,1.27 0.80169,2.10344 h -3.76873 c -0.0566,1.50018 1.02314,2.40559 2.39977,1.94363 0.48287,-0.16219 0.76729,-0.54028 0.90964,-1.01336 0.0722,-0.23706 0.19182,-0.27411 0.4146,-0.20637 -0.11377,0.59161 -0.37042,1.08585 -0.91281,1.39514 -0.81042,0.46303 -1.96718,0.31327 -2.57572,-0.3302 -0.36248,-0.37332 -0.51223,-0.8464 -0.57944,-1.35228 -0.0106,-0.0836 -0.0318,-0.16325 -0.0476,-0.24342 q 0.002,-0.20531 0.002,-0.41063 z m 0.39635,-0.10054 h 3.40572 c -0.0222,-1.08479 -0.69771,-1.85526 -1.62084,-1.86187 -1.01335,-0.008 -1.74096,0.74427 -1.78488,1.86187 z"
       id="path1"
       style="stroke-width:0.264583"
       inkscape:export-filename="express-js2.svg"
       inkscape:export-xdpi="180.98451"
       inkscape:export-ydpi="180.98451" /></g></svg>
