<svg version="1.1" xmlns="http://www.w3.org/2000/svg" xmlns:xlink="http://www.w3.org/1999/xlink" viewBox="0.02 0.2 511.38 145.7">     <defs>  </defs>     <g stroke="none" stroke-width="1" fill="none" fill-rule="evenodd">         <g>             <path d="M 476.7 60.5 C 476.3 60.6 475.8 61.6 475.8 62.1 C 475.7 65.8 475.6 75.6 475.6 82.2 C 475.6 82.4 475.9 82.8 476.2 82.8 C 477.5 82.9 480.9 83 483.7 83 C 487.7 83 490 82.4 491.3 81.9 C 494.6 80.2 496.2 76.6 496.2 72.6 C 496.2 63.7 489.9 60.3 480.6 60.3 C 479.9 60.2 478.1 60.2 476.7 60.5 L 476.7 60.5 L 476.7 60.5 Z M 500.5 101.7 C 500.5 92.6 493.8 87.5 481.6 87.5 C 481.1 87.5 477.2 87.4 476.3 87.6 C 476 87.7 475.6 87.9 475.6 88.1 C 475.6 94.7 475.5 105.1 475.8 109.2 C 476 110.9 477.3 113.4 478.8 114.2 C 480.5 115.1 484.3 115.3 486.9 115.3 C 494.2 115.3 500.5 111.2 500.5 101.7 L 500.5 101.7 L 500.5 101.7 Z M 457.9 55.4 C 458.8 55.4 461.6 55.7 468.7 55.7 C 475.4 55.7 480.8 55.5 487.3 55.5 C 495.4 55.5 506.4 58.3 506.4 70.3 C 506.4 76.2 502.3 80.9 496.8 83.3 C 496.6 83.3 496.6 83.5 496.8 83.6 C 504.6 85.6 511.4 90.4 511.4 99.4 C 511.4 108.3 505.9 113.9 497.8 117.4 C 493 119.5 486.9 120.3 480.7 120.3 C 476 120.3 463.3 119.7 456.3 119.9 C 455.6 119.6 457 116.3 457.6 115.7 C 459.3 115.6 460.6 115.6 462.3 115 C 464.8 114.4 465.1 113.6 465.5 109.8 C 465.6 106.6 465.6 95.2 465.6 87 C 465.6 75.9 465.7 68.3 465.6 64.6 C 465.5 61.8 464.5 60.8 462.5 60.3 C 460.9 60 458.3 59.6 456.2 59.4 C 455.8 58.9 457.3 55.8 457.9 55.4 L 457.9 55.4 L 457.9 55.4 Z M 404.6 112.8 C 406.9 114.5 411.2 115.3 415.1 115.3 C 420.1 115.3 425 114.4 429.8 110 C 434.7 105.6 438.1 98.8 438.1 87.9 C 438.1 77.4 434.2 69 426.1 64 C 421.4 61.1 415.5 59.9 408.7 59.9 C 406.7 59.9 404.7 60 403.5 60.6 C 403.3 60.7 402.6 61.6 402.6 62 C 402.4 63.9 402.4 78.1 402.4 86.4 C 402.4 95 402.4 107 402.6 108.4 C 402.6 109.7 403.3 111.9 404.6 112.8 L 404.6 112.8 L 404.6 112.8 Z M 383.7 55.4 C 385.4 55.4 392.2 55.7 395.4 55.7 C 401.2 55.7 405.4 55.4 416.4 55.4 C 425.6 55.4 433.3 57.9 438.9 62.6 C 445.6 68.4 449.1 76.4 449.1 86.2 C 449.1 100.1 442.8 108.2 436.4 112.8 C 430 117.5 421.7 120.3 409.9 120.3 C 403.6 120.3 392.8 120.1 383.9 120 L 383.8 120 C 383.3 119.2 384.5 115.9 385.3 115.8 C 387.7 115.6 388.3 115.5 389.5 115 C 391.4 114.3 391.8 113.2 392.1 109.8 C 392.4 103.5 392.3 95.8 392.3 87.1 C 392.3 80.9 392.4 68.9 392.2 65 C 391.9 61.8 390.5 60.9 387.8 60.4 C 386.4 60.1 384.5 59.7 381.9 59.4 C 381.6 58.8 383.2 55.9 383.7 55.4 L 383.7 55.4 L 383.7 55.4 Z" fill="#8e714e">  </path>             <path d="M 272 116.4 C 269.7 116.1 268.1 115.7 266 114.8 C 265.8 114.6 265.3 113.7 265.3 113.3 C 265.1 110.1 265.1 100.9 265.1 94.7 C 265.1 89.7 264.3 85.4 262.2 82.3 C 259.7 78.8 256.1 76.8 251.5 76.8 C 247.4 76.8 241.9 79.6 237.4 83.4 C 237.3 83.5 236.6 84.2 236.7 83.2 C 236.7 82.1 236.9 80.1 237 78.7 C 237.1 77.4 236.3 76.8 236.3 76.8 C 233.4 78.3 225.1 80.2 222 80.5 C 219.8 80.9 219.2 83.1 221.6 83.8 L 221.6 83.8 C 224.1 84.5 225.8 85.4 227.1 86.2 C 228 86.9 227.9 88 227.9 88.8 C 228 95.7 228 106.3 227.7 112.1 C 227.6 114.4 227 115.3 225.3 115.6 L 225.5 115.6 C 224.2 115.8 223.2 116.1 221.6 116.3 C 221.1 116.8 221.1 119.8 221.6 120.4 C 222.7 120.4 228 120.2 232.4 120.2 C 238.5 120.2 241.7 120.4 243.2 120.4 C 243.9 119.7 244.1 116.9 243.7 116.3 C 241.9 116.2 240.7 116 239.5 115.6 C 237.8 115.3 237.3 114.4 237.2 112.5 C 237.1 107.6 237.1 97.3 237.1 90.3 C 237.1 88.3 237.6 87.4 238.2 86.9 C 240.3 85 243.7 83.7 246.7 83.7 C 249.7 83.7 251.6 84.6 253.1 85.8 C 255.1 87.5 255.8 89.9 256.1 91.7 C 256.5 95.6 256.3 103.5 256.3 110.3 C 256.3 114 256.1 114.9 254.7 115.4 C 254 115.6 252.4 116 250.4 116.2 C 249.8 116.8 250 119.7 250.4 120.4 C 253.1 120.4 256.3 120.1 260.9 120.1 C 266.6 120.1 270.3 120.4 271.8 120.4 C 272.2 119.8 272.4 117.1 272 116.4 L 272 116.4 L 272 116.4 Z M 297.6 81.1 C 292.7 81.1 289.7 84.9 289.7 90.8 C 289.7 96.8 292.3 103.7 299.9 103.7 C 301.2 103.7 303.6 103.2 304.7 101.9 C 306.5 100.2 307.7 96.9 307.7 93.4 C 307.7 85.7 303.9 81.1 297.6 81.1 L 297.6 81.1 L 297.6 81.1 Z M 296.9 121.9 C 295.1 121.9 293.8 122.5 293 122.9 C 289.1 125.4 287.4 127.8 287.4 130.7 C 287.4 133.4 288.4 135.5 290.6 137.3 C 293.3 139.6 296.9 140.7 301.7 140.7 C 311.1 140.7 315.2 135.7 315.2 130.7 C 315.2 127.2 313.5 124.9 309.9 123.6 C 307.3 122.5 302.6 121.9 296.9 121.9 L 296.9 121.9 L 296.9 121.9 Z M 297.6 145.9 C 292 145.9 287.9 144.7 284.4 142 C 281 139.5 279.5 135.6 279.5 132.9 C 279.5 132.2 279.7 130.1 281.4 128.3 C 282.4 127.2 284.6 125.1 289.8 121.5 C 290 121.4 290.1 121.3 290.1 121.1 C 290.1 120.9 289.9 120.7 289.8 120.6 C 285.4 119 284.1 116.3 283.8 114.8 L 283.8 114.6 C 283.7 114.1 283.5 113.5 284.3 113 C 285 112.5 285.9 112 286.9 111.3 C 288.5 110.4 290.1 109.4 291.1 108.5 C 291.3 108.4 291.3 108.2 291.3 108 C 291.3 107.8 291.1 107.6 291 107.5 C 284.5 105.4 281.3 100.6 281.3 93.4 C 281.3 88.7 283.4 84.5 287.2 81.8 C 289.8 79.7 296.2 77.3 300.5 77.3 L 300.7 77.3 C 305.1 77.3 307.5 78.3 310.9 79.5 C 312.7 80.1 314.5 80.4 316.9 80.4 C 320.5 80.4 322 79.3 323.3 78 C 323.4 78.2 323.6 78.6 323.7 79.8 C 323.8 81 323.4 82.8 322.5 84.1 C 321.8 85.1 320.1 85.8 318.5 85.8 L 318 85.8 C 316.3 85.7 315.6 85.5 315.6 85.5 L 315.2 85.7 C 315.1 85.8 315.2 86 315.3 86.3 L 315.4 86.5 C 315.6 87.3 316 89.8 316 90.5 C 316 98 312.9 101.3 309.7 103.8 C 306.5 106.1 302.9 107.6 298.9 108 C 298.8 108 298.4 108 297.6 108.1 C 297.1 108.1 296.5 108.2 296.4 108.2 L 296.3 108.2 C 295.6 108.4 293.7 109.3 293.7 110.8 C 293.7 112.2 294.6 113.9 298.5 114.2 C 299.3 114.3 300.2 114.3 301.1 114.4 C 306.4 114.7 312.9 115.2 316 116.2 C 320.2 117.8 322.9 121.6 322.9 126.1 C 322.9 132.9 318 139.3 309.9 143.2 C 305.9 145 301.9 145.9 297.6 145.9 L 297.6 145.9 L 297.6 145.9 Z M 350.2 81.6 C 348.3 81.6 346.5 82.1 345.2 83 C 341.6 85.2 339.8 89.6 339.8 96.1 C 339.8 108.2 345.9 116.7 354.5 116.7 C 357.1 116.7 359.1 115.9 360.9 114.4 C 363.6 112.2 365 107.8 365 101.6 C 365 89.6 359 81.6 350.2 81.6 L 350.2 81.6 L 350.2 81.6 Z M 351.9 121.1 C 336.2 121.1 330.5 109.6 330.5 98.8 C 330.5 91.2 333.6 85.4 339.7 81.2 C 344 78.6 349.2 77.1 353.8 77.1 C 365.8 77.1 374.2 85.7 374.2 98 C 374.2 106.4 370.9 113.1 364.5 117.1 C 361.5 119.2 356.2 121.1 351.9 121.1 L 351.9 121.1 L 351.9 121.1 Z M 187.4 81.6 C 185.5 81.6 183.7 82.1 182.4 83 C 178.8 85.2 177 89.6 177 96.1 C 177 108.2 183.1 116.7 191.7 116.7 C 194.3 116.7 196.4 115.9 198.1 114.4 C 200.8 112.2 202.2 107.8 202.2 101.6 C 202.2 89.6 196.3 81.6 187.4 81.6 L 187.4 81.6 L 187.4 81.6 Z M 189.1 121.1 C 173.4 121.1 167.8 109.6 167.8 98.8 C 167.8 91.2 170.8 85.4 176.9 81.2 C 181.2 78.6 186.4 77.1 191 77.1 C 203 77.1 211.4 85.7 211.4 98 C 211.4 106.4 208.1 113.1 201.7 117.1 C 198.8 119.2 193.5 121.1 189.1 121.1 L 189.1 121.1 L 189.1 121.1 Z M 83.6 120.2 C 83.4 119.9 83.2 119.1 83.3 118 C 83.3 117.3 83.5 116.8 83.6 116.7 C 85.5 116.4 86.5 116.1 87.7 115.8 C 89.5 115.4 90.2 114.4 90.3 112 C 90.6 106.5 90.6 96 90.5 88.7 L 90.5 88.5 C 90.5 87.7 90.5 86.7 89.5 85.9 C 88 85 86.3 84.2 84 83.5 C 83.1 83.3 82.6 82.8 82.7 82.2 C 82.7 81.7 83.2 81 84.4 80.9 C 87.5 80.6 95.4 78.6 98.5 77.3 C 98.7 77.4 99 78 99 78.7 L 98.9 79.7 C 98.8 80.8 98.7 82 98.7 83.2 C 98.7 83.5 99.1 83.8 99.5 83.8 C 99.7 83.8 99.8 83.7 100 83.6 C 105.9 79 111.3 77.3 114 77.3 C 118.6 77.3 122.1 79.5 124.8 83.9 C 124.9 84.2 125.1 84.3 125.4 84.3 C 125.6 84.3 125.9 84.2 126 84 C 131.4 79.8 136.8 77.3 140.4 77.3 C 149 77.3 154.1 83.7 154.1 94.5 C 154.1 97.6 154.1 101.5 154 105.1 C 154 108.4 153.9 111.3 153.9 113.4 C 153.9 113.9 154.6 115.4 155.6 115.6 C 156.9 116.3 158.6 116.6 160.9 116.9 L 161 116.9 C 161.2 117.6 160.8 120 160.5 120.4 C 159.9 120.4 159.1 120.4 158.2 120.4 C 156.4 120.3 153.9 120.2 151.1 120.2 C 145.4 120.2 142.5 120.3 139.6 120.4 C 139.4 119.7 139.3 117.5 139.6 116.9 C 141.3 116.7 142.1 116.4 143.1 116.1 C 145 115.6 145.4 114.7 145.5 112.3 C 145.5 110.6 145.9 95.6 145.3 92 C 144.8 88.3 142 84 135.9 84 C 133.6 84 130 84.9 126.5 87.6 C 126.3 87.8 126.1 88.2 126.1 88.5 L 126.1 88.6 C 126.5 90.5 126.5 92.8 126.5 96.2 L 126.5 102.2 C 126.5 106.3 126.4 110.2 126.5 113.2 C 126.5 115.2 127.7 115.6 128.7 116 C 129.3 116.1 129.6 116.2 130.1 116.3 C 130.9 116.5 131.8 116.7 133.1 116.9 C 133.2 117.3 133.2 118.5 133 119.5 C 132.9 120.1 132.7 120.4 132.6 120.4 C 129.5 120.4 126.2 120.3 121.5 120.3 C 120.1 120.3 117.7 120.4 115.7 120.4 C 114 120.4 112.5 120.4 111.6 120.4 C 111.5 120.3 111.3 119.6 111.3 118.6 C 111.3 117.8 111.5 117.1 111.6 116.9 C 112.1 116.8 112.5 116.8 112.9 116.8 C 114 116.6 115 116.4 115.9 116.2 C 117.5 115.7 118 114.9 118.1 112.9 C 118.4 108.3 118.7 95.1 118 91.7 C 116.9 86.4 113.9 83.7 109 83.7 C 106.1 83.7 102.5 85.1 99.6 87.3 C 99.1 87.7 98.7 88.6 98.7 89.4 L 98.7 94.9 C 98.7 101.5 98.7 109.8 98.8 113.4 C 98.9 114.5 99.3 115.8 101.4 116.3 C 101.9 116.4 102.6 116.6 103.5 116.7 L 105.2 116.9 C 105.4 117.5 105.3 119.7 104.9 120.4 C 104 120.4 102.9 120.4 101.6 120.4 C 99.7 120.3 97.2 120.2 94.4 120.2 C 91.2 120.2 88.9 120.3 87 120.4 C 85.7 120.2 84.7 120.2 83.6 120.2 L 83.6 120.2 L 83.6 120.2 Z" fill="#442d22">  </path>             <g>                 <path d="M 35.1 142.3 L 31.3 141 C 31.3 141 31.7 121.7 24.8 120.4 C 20.2 115 25.5 -106.7 42.2 119.6 C 42.2 119.6 36.4 122.5 35.4 127.4 C 34.3 132.2 35.1 142.3 35.1 142.3 L 35.1 142.3 L 35.1 142.3 Z" fill="#ffffff">  </path>                 <path d="M 35.1 142.3 L 31.3 141 C 31.3 141 31.7 121.7 24.8 120.4 C 20.2 115 25.5 -106.7 42.2 119.6 C 42.2 119.6 36.4 122.5 35.4 127.4 C 34.3 132.2 35.1 142.3 35.1 142.3 L 35.1 142.3 L 35.1 142.3 Z" fill="#a6a385">  </path>                 <path d="M 37.1 123.7 C 37.1 123.7 70.2 101.9 62.5 56.6 C 55 23.6 37.4 12.8 35.4 8.7 C 33.3 5.7 31.3 0.6 31.3 0.6 L 32.7 92.2 C 32.7 92.3 29.8 120.3 37.1 123.7" fill="#ffffff">  </path>                 <path d="M 37.1 123.7 C 37.1 123.7 70.2 101.9 62.5 56.6 C 55 23.6 37.4 12.8 35.4 8.7 C 33.3 5.7 31.3 0.6 31.3 0.6 L 32.7 92.2 C 32.7 92.3 29.8 120.3 37.1 123.7" fill="#499d4a">  </path>                 <path d="M 29.3 124.9 C 29.3 124.9 -1.8 103.7 0.1 66.3 C 1.8 28.9 23.8 10.5 28 7.2 C 30.8 4.3 30.9 3.2 31.1 0.2 C 33 4.4 32.7 62.3 32.9 69.1 C 33.8 95.4 31.5 119.9 29.3 124.9 L 29.3 124.9 L 29.3 124.9 Z" fill="#ffffff">  </path>                 <path d="M 29.3 124.9 C 29.3 124.9 -1.8 103.7 0.1 66.3 C 1.8 28.9 23.8 10.5 28 7.2 C 30.8 4.3 30.9 3.2 31.1 0.2 C 33 4.4 32.7 62.3 32.9 69.1 C 33.8 95.4 31.5 119.9 29.3 124.9 L 29.3 124.9 L 29.3 124.9 Z" fill="#58aa50">  </path>             </g>         </g>     </g> </svg>